<svg width="95" height="28" viewBox="0 0 95 28" fill="none" xmlns="http://www.w3.org/2000/svg">
<path fill-rule="evenodd" clip-rule="evenodd" d="M9.44133 0.609499C8.08373 -0.0144668 6.5549 -0.164597 5.10123 0.183342C3.64757 0.531279 2.35387 1.35698 1.42851 2.52724C0.503156 3.69749 -3.59169e-07 5.14416 0 6.63415C3.5917e-07 8.12414 0.503157 9.57082 1.42851 10.7411C2.35387 11.9113 3.64757 12.737 5.10123 13.085C6.5549 13.4329 8.08373 13.2828 9.44133 12.6588C10.7989 12.0348 11.9061 10.9734 12.5847 9.64576L12.5992 9.61727L10.2984 8.4485L10.2834 8.47792C9.86801 9.29068 9.19033 9.94022 8.35968 10.322C7.52904 10.7038 6.59373 10.7956 5.7044 10.5827C4.81507 10.3699 4.02338 9.86467 3.45699 9.14838C2.89059 8.43208 2.58252 7.54644 2.58252 6.63415C2.58252 5.72187 2.89059 4.83622 3.45699 4.11993C4.02338 3.40364 4.81507 2.89844 5.7044 2.68557C6.59372 2.47271 7.52904 2.56454 8.35968 2.94631C9.19033 3.32808 9.868 3.97762 10.2834 4.79038L10.2984 4.8198L12.5992 3.65103L12.5847 3.62254C11.9061 2.29486 10.7989 1.23346 9.44133 0.609499ZM27.385 0.260173H36.3013V2.74733H29.9803V5.23188H35.5033V7.71904H29.9803V10.586H36.3013V13.0732H27.385V0.260173ZM38.4993 0.260173H41.6347L45.7858 10.0239L49.9369 0.260173H53.0722V13.0732H50.4543V5.28157L47.1383 13.0732H44.4332L41.1351 5.33509L41.1171 13.0732H38.4993V0.260173ZM80.0593 0.260173H82.6545V5.23188H88.8015V0.260173H91.3967V13.0732H88.8015V7.71904H82.6545V13.0732H80.0593V0.260173ZM78.2777 0.260173H66.8988V2.74733H71.2907V13.0732H73.8859V2.74733H78.2777V0.260173ZM59.7554 0.260173H62.8255L68.0453 13.0732H65.1674L63.9501 10.059C63.9435 10.0613 63.9359 10.064 63.9272 10.0669C63.8922 10.0789 63.8405 10.096 63.774 10.1165C63.6408 10.1574 63.4478 10.212 63.2079 10.2665C62.7282 10.3755 62.0605 10.4846 61.3087 10.4846C60.5569 10.4846 59.8801 10.3755 59.3914 10.2665C59.1469 10.212 58.9494 10.1575 58.8129 10.1166C58.7446 10.0961 58.6916 10.079 58.6555 10.067L58.6385 10.0613L58.6311 10.0588L57.4319 13.0732H54.5722L59.7554 0.260173ZM59.6382 7.56047L59.6405 7.56147C59.6607 7.57018 59.6909 7.5827 59.7305 7.59777C59.8095 7.6279 59.9259 7.66819 60.0744 7.70852C60.3713 7.78919 60.7965 7.86994 61.3087 7.86994C61.8208 7.86993 62.2414 7.78919 62.5338 7.70856C62.6799 7.66824 62.794 7.62796 62.8713 7.59785C62.9099 7.5828 62.9394 7.57029 62.9591 7.56159L62.9609 7.56079L61.2906 3.42301L59.6382 7.56047ZM14.424 0.260173H17.0192V7.9675C17.0192 8.86083 17.2671 9.56733 17.7338 10.0503C18.2002 10.533 18.8892 10.7968 19.7807 10.7968C20.6722 10.7968 21.3613 10.533 21.8277 10.0503C22.2944 9.56733 22.5423 8.86083 22.5423 7.9675V0.260173H25.1374V7.9675C25.1374 9.59999 24.6363 10.9421 23.7141 11.8763C22.7917 12.8106 21.4516 13.3333 19.7807 13.3333C18.1099 13.3333 16.7697 12.8106 15.8474 11.8763C14.9252 10.9421 14.424 9.59999 14.424 7.9675V0.260173Z" fill="#0D0D0D"/>
<path d="M0.51155 25.7093V19H1.52258L4.06489 24.8371L6.60719 19H7.61822V25.7093H6.83295V20.3323L4.48697 25.7093H3.6428L1.31645 20.361L1.29682 25.7093H0.51155Z" fill="#0D0D0D"/>
<path d="M8.85963 24.4824C8.85963 23.6102 9.49766 23.131 10.6461 22.9585L11.9025 22.7668V22.5463C11.9025 22.0383 11.5197 21.6358 10.7737 21.6358C10.0375 21.6358 9.63508 22.0479 9.63508 22.6901C9.63508 22.738 9.63508 22.7764 9.6449 22.8243L8.88908 22.7668V22.6613C8.88908 21.5399 9.75287 20.9649 10.7443 20.9649C12.0007 20.9649 12.6584 21.607 12.6584 22.6038V25.7093H11.9025V25.1054C11.6473 25.5176 11.186 25.8434 10.4891 25.8434C9.34061 25.8434 8.85963 25.1342 8.85963 24.4824ZM9.62527 24.4153C9.62527 24.8658 10.0179 25.1438 10.6363 25.1438C11.3725 25.1438 11.9025 24.5974 11.9025 23.7444V23.4089L10.6952 23.6102C10.1357 23.7061 9.62527 23.8978 9.62527 24.4153Z" fill="#0D0D0D"/>
<path d="M14.0064 25.7093V19H14.7916V23.0831L16.8333 21.1086H17.8542L15.8616 23.0351L17.972 25.7093H17.01L15.3119 23.5719L14.7916 24.0703V25.7093H14.0064Z" fill="#0D0D0D"/>
<path d="M18.6658 19.7764C18.6658 19.4696 18.9112 19.23 19.2253 19.23C19.5296 19.23 19.7848 19.4696 19.7848 19.7764C19.7848 20.0735 19.5296 20.3227 19.2253 20.3227C18.9112 20.3227 18.6658 20.0735 18.6658 19.7764ZM18.8326 25.7093V21.1086H19.6179V25.7093H18.8326Z" fill="#0D0D0D"/>
<path d="M20.9653 25.7093V21.1086H21.7506V21.6933C22.0843 21.2524 22.6045 20.9649 23.3113 20.9649C24.3419 20.9649 24.9505 21.6358 24.9505 22.7093V25.7093H24.1653V22.8722C24.1653 22.0671 23.8119 21.6645 23.0757 21.6645C22.2806 21.6645 21.7506 22.2684 21.7506 23.2364V25.7093H20.9653Z" fill="#0D0D0D"/>
<path d="M26.0248 25.9968L26.8002 25.901C26.8002 26.754 27.3597 27.3099 28.2235 27.3099C29.1756 27.3099 29.8235 26.6581 29.8235 25.5942V24.7604C29.4799 25.2396 28.9401 25.5463 28.2431 25.5463C26.9376 25.5463 26.0248 24.5399 26.0248 23.2748C26.0248 22.0096 26.9376 20.984 28.2431 20.984C28.9401 20.984 29.4799 21.3003 29.8235 21.7796V21.1086H30.6088V25.5655C30.6088 26.9936 29.637 28 28.2137 28C26.9475 28 26.0248 27.2524 26.0248 25.9968ZM26.81 23.2748C26.81 24.1565 27.4186 24.8179 28.3217 24.8179C29.2149 24.8179 29.8235 24.1661 29.8235 23.2748C29.8235 22.3834 29.2149 21.7125 28.3217 21.7125C27.4284 21.7125 26.81 22.3834 26.81 23.2748Z" fill="#0D0D0D"/>
<path d="M34.583 25.7189V19H35.3584V22.23L38.8823 19H39.9621L36.8504 21.8658L39.9915 25.7189H38.9903L36.2811 22.4026L35.3584 23.246V25.7189H34.583Z" fill="#0D0D0D"/>
<path d="M40.6786 19.7764C40.6786 19.4696 40.924 19.23 41.2381 19.23C41.5424 19.23 41.7976 19.4696 41.7976 19.7764C41.7976 20.0735 41.5424 20.3227 41.2381 20.3227C40.924 20.3227 40.6786 20.0735 40.6786 19.7764ZM40.8455 25.7093V21.1086H41.6308V25.7093H40.8455Z" fill="#0D0D0D"/>
<path d="M42.7033 23.4185C42.7033 22.0479 43.6162 20.9649 44.9315 20.9649C45.707 20.9649 46.2861 21.3003 46.6591 21.8179V19H47.4444V25.7093H46.6591V25.0096C46.2861 25.5272 45.707 25.853 44.9315 25.853C43.6162 25.853 42.7033 24.7891 42.7033 23.4185ZM43.4886 23.4185C43.4886 24.3962 44.1364 25.115 45.0689 25.115C46.0014 25.115 46.6591 24.4058 46.6591 23.4185C46.6591 22.4313 46.0014 21.7029 45.0689 21.7029C44.1462 21.7029 43.4886 22.4313 43.4886 23.4185Z" fill="#0D0D0D"/>
<path d="M48.4384 24.0511L49.2138 23.9073C49.3022 24.6262 49.793 25.1438 50.5684 25.1438C51.2654 25.1438 51.6776 24.8275 51.6776 24.3866C51.6776 24.0319 51.4028 23.754 50.4604 23.6581C49.2727 23.5431 48.7721 23.016 48.7721 22.2492C48.7721 21.5016 49.5083 20.9649 50.4801 20.9649C51.3243 20.9649 52.0702 21.5016 52.2764 22.3834L51.5598 22.5942C51.4519 22 51.0101 21.6837 50.4801 21.6837C49.95 21.6837 49.5672 21.9137 49.5672 22.2492C49.5672 22.5751 49.7832 22.8339 50.5782 22.9105C51.8936 23.0351 52.4629 23.5527 52.4629 24.3674C52.4629 25.2492 51.6874 25.853 50.5684 25.853C49.42 25.853 48.6151 25.1054 48.4384 24.0511Z" fill="#0D0D0D"/>
<path d="M56.0782 25.7093V19H57.0892L59.6315 24.8371L62.1739 19H63.1849V25.7093H62.3996V20.3323L60.0536 25.7093H59.2095L56.8831 20.361L56.8635 25.7093H56.0782Z" fill="#0D0D0D"/>
<path d="M64.4263 24.4824C64.4263 23.6102 65.0643 23.131 66.2128 22.9585L67.4692 22.7668V22.5463C67.4692 22.0383 67.0864 21.6358 66.3404 21.6358C65.6042 21.6358 65.2017 22.0479 65.2017 22.6901C65.2017 22.738 65.2018 22.7764 65.2116 22.8243L64.4557 22.7668V22.6613C64.4557 21.5399 65.3195 20.9649 66.3109 20.9649C67.5674 20.9649 68.225 21.607 68.225 22.6038V25.7093H67.4692V25.1054C67.214 25.5176 66.7527 25.8434 66.0557 25.8434C64.9073 25.8434 64.4263 25.1342 64.4263 24.4824ZM65.1919 24.4153C65.1919 24.8658 65.5846 25.1438 66.203 25.1438C66.9391 25.1438 67.4692 24.5974 67.4692 23.7444V23.4089L66.2618 23.6102C65.7023 23.7061 65.1919 23.8978 65.1919 24.4153Z" fill="#0D0D0D"/>
<path d="M69.1215 21.7987V21.1086H70.0246V19.7093H70.8098V21.1086H73.2736V21.7987H70.8098V24.1374C70.8098 24.7987 71.173 25.1438 71.762 25.1438C72.3509 25.1438 72.7043 24.6837 72.665 23.984L73.4307 24.0511C73.4895 25.1629 72.7435 25.853 71.7914 25.853C70.7019 25.853 70.0246 25.2013 70.0246 24.1182V21.7987H69.1215Z" fill="#0D0D0D"/>
<path d="M74.4281 25.7093V19H75.2133V21.6933C75.5471 21.2524 76.0673 20.9649 76.774 20.9649C77.8047 20.9649 78.4133 21.6358 78.4133 22.7093V25.7093H77.628V22.8722C77.628 22.0671 77.2746 21.6645 76.5385 21.6645C75.7434 21.6645 75.2133 22.2684 75.2133 23.2364V25.7093H74.4281Z" fill="#0D0D0D"/>
<path d="M79.8311 25.7093V19H84.4543V19.738H80.6163V22.115H84.0519V22.8434H80.6163V25.7093H79.8311Z" fill="#0D0D0D"/>
<path d="M85.2365 19.7764C85.2365 19.4696 85.4819 19.23 85.7961 19.23C86.1003 19.23 86.3556 19.4696 86.3556 19.7764C86.3556 20.0735 86.1003 20.3227 85.7961 20.3227C85.4819 20.3227 85.2365 20.0735 85.2365 19.7764ZM85.4034 25.7093V21.1086H86.1887V25.7093H85.4034Z" fill="#0D0D0D"/>
<path d="M87.0845 21.7987V21.1086H87.9876V19.7093H88.7729V21.1086H91.2367V21.7987H88.7729V24.1374C88.7729 24.7987 89.1361 25.1438 89.725 25.1438C90.314 25.1438 90.6673 24.6837 90.6281 23.984L91.3937 24.0511C91.4526 25.1629 90.7066 25.853 89.7545 25.853C88.6649 25.853 87.9876 25.2013 87.9876 24.1182V21.7987H87.0845Z" fill="#0D0D0D"/>
<path d="M92.0962 19.1742V18.9457H93.2263V19.1742H92.784V20.279H92.5405V19.1742H92.0962Z" fill="#0D0D0D"/>
<path d="M93.373 20.279V18.9457H93.6691L94.1309 20.0047L94.5908 18.9457H94.8889V20.279H94.6453V19.3895L94.2576 20.279H94.0023L93.6185 19.399L93.6165 20.279H93.373Z" fill="#0D0D0D"/>
</svg>
